<?xml version="1.0" encoding="utf-8"?>
<!-- Generator: Adobe Illustrator 26.5.0, SVG Export Plug-In . SVG Version: 6.00 Build 0)  -->
<svg version="1.1" xmlns="http://www.w3.org/2000/svg" xmlns:xlink="http://www.w3.org/1999/xlink" x="0px" y="0px"
	 viewBox="0 0 270 554.4" style="enable-background:new 0 0 270 554.4;" xml:space="preserve">
<style type="text/css">
	.st0{fill:#E5E7E7;stroke:#000000;stroke-width:0.75;stroke-linecap:round;stroke-linejoin:round;stroke-miterlimit:10;}
	.st1{fill:none;stroke:#1A1A1A;stroke-miterlimit:10;}
	.st2{fill:none;stroke:#4894D0;stroke-width:2.56;stroke-linejoin:round;stroke-miterlimit:10;stroke-opacity:0.45;}
	.st3{fill:none;stroke:#3A78AA;stroke-width:2.56;stroke-linejoin:round;stroke-miterlimit:10;stroke-opacity:0.45;}
	.st4{fill:none;stroke:#2C5D86;stroke-width:2.56;stroke-linejoin:round;stroke-miterlimit:10;stroke-opacity:0.45;}
	.st5{fill:none;stroke:#132B43;stroke-width:2.56;stroke-linejoin:round;stroke-miterlimit:10;stroke-opacity:0.45;}
	.st6{fill:none;stroke:#1F4364;stroke-width:2.56;stroke-linejoin:round;stroke-miterlimit:10;stroke-opacity:0.45;}
	.st7{fill:none;}
	.st8{fill:#4894D0;}
	.st9{font-family:'ArialMT';}
	.st10{font-size:23.71px;}
	.st11{fill:#3A78AA;}
	.st12{fill:#2C5D86;}
	.st13{fill:#132B43;}
	.st14{fill:#1F4364;}
	.st15{fill:#56B1F7;}
	.st16{display:none;}
	
		.st17{display:inline;fill:#E5E7E7;stroke:#000000;stroke-width:0.75;stroke-linecap:round;stroke-linejoin:round;stroke-miterlimit:10;}
	
		.st18{display:inline;fill:none;stroke:#4894D0;stroke-width:2.56;stroke-linejoin:round;stroke-miterlimit:10;stroke-opacity:0.45;}
	
		.st19{display:inline;fill:none;stroke:#3A78AA;stroke-width:2.56;stroke-linejoin:round;stroke-miterlimit:10;stroke-opacity:0.45;}
	
		.st20{display:inline;fill:none;stroke:#2C5D86;stroke-width:2.56;stroke-linejoin:round;stroke-miterlimit:10;stroke-opacity:0.45;}
	
		.st21{display:inline;fill:none;stroke:#56B1F7;stroke-width:2.56;stroke-linejoin:round;stroke-miterlimit:10;stroke-opacity:0.45;}
	
		.st22{display:inline;fill:none;stroke:#132B43;stroke-width:2.56;stroke-linejoin:round;stroke-miterlimit:10;stroke-opacity:0.45;}
	
		.st23{display:inline;fill:none;stroke:#1F4364;stroke-width:2.56;stroke-linejoin:round;stroke-miterlimit:10;stroke-opacity:0.45;}
	.st24{display:inline;fill:none;}
	.st25{display:inline;fill:#4894D0;}
	.st26{display:inline;fill:#3A78AA;}
	.st27{display:inline;fill:#2C5D86;}
	.st28{display:inline;fill:#56B1F7;}
	.st29{display:inline;fill:#132B43;}
	.st30{display:inline;fill:#1F4364;}
	.st31{display:inline;}
	.st32{font-size:11.04px;}
	.st33{display:inline;enable-background:new    ;}
	.st34{display:inline;fill:#4D4D4D;}
	.st35{font-family:'Helvetica';}
	.st36{font-size:13px;}
	.st37{display:inline;fill:#1A1A1A;}
	.st38{font-family:'Calibri-Bold';}
	.st39{font-size:20px;}
	.st40{fill:#1A1A1A;}
	.st41{letter-spacing:23;}
	.st42{letter-spacing:4;}
	.st43{letter-spacing:2;}
	.st44{letter-spacing:1;}
	.st45{letter-spacing:15;}
	.st46{display:inline;fill:#BFBFBF;}
	.st47{font-size:10px;}
	.st48{enable-background:new    ;}
	.st49{font-family:'Arial-BoldMT';}
	.st50{fill:none;stroke:#FC4A00;stroke-width:2.56;stroke-linejoin:round;stroke-miterlimit:10;stroke-opacity:0.45;}
	.st51{fill:#FC4A00;}
	.st52{fill:#130300;}
	.st53{font-family:'Optima-Bold';}
	.st54{font-size:21px;}
</style>
<g id="Background">
	<rect class="st0" width="270" height="554.4"/>
	<g>
		<rect x="10" y="10" class="st1" width="250" height="534.4"/>
	</g>
</g>
<g id="Figure">
	<polyline class="st2" points="106.7,230.5 107.4,230.5 108.2,230.5 109,230.5 109.7,230.5 110.5,230.5 111.2,230.5 112,230.5 
		112.8,230.5 113.5,230.5 114.3,230.6 115.1,230.6 115.8,230.6 116.6,230.6 117.3,230.6 118.1,230.7 118.9,230.7 119.6,230.7 
		120.4,230.8 121.2,230.8 121.9,230.9 122.7,231 123.5,231 124.2,231.1 125,231.3 125.8,231.4 126.5,231.5 127.3,231.7 128,231.9 
		128.8,232.2 129.6,232.5 130.3,232.8 131.1,233.2 131.9,233.6 132.6,234.2 133.4,234.8 134.1,235.4 134.9,236.2 135.7,237 
		136.4,238 137.2,239.1 138,240.3 138.7,241.6 139.5,243.1 140.2,244.7 141,246.4 141.8,248.1 142.5,250 143.3,251.9 144.1,253.9 
		144.8,255.8 145.6,257.8 146.4,259.7 147.1,261.5 147.9,263.3 148.6,265 149.4,266.6 150.2,268 150.9,269.4 151.7,270.6 
		152.5,271.6 153.2,272.6 154,273.5 154.8,274.2 155.5,274.9 156.3,275.5 157,276 157.8,276.5 158.6,276.9 159.3,277.2 160.1,277.5 
		160.9,277.7 161.6,277.9 162.4,278.1 163.1,278.3 163.9,278.4 164.7,278.5 165.4,278.6 166.2,278.7 167,278.8 167.7,278.8 
		168.5,278.9 169.2,278.9 170,279 170.8,279 171.5,279 172.3,279.1 173.1,279.1 173.8,279.1 174.6,279.1 175.4,279.1 176.1,279.1 
		176.9,279.1 177.6,279.1 178.4,279.1 179.2,279.2 179.9,279.2 180.7,279.2 181.5,279.2 182.2,279.2 	"/>
	<polyline class="st3" points="106.7,279.2 107.4,279.1 108.2,279.1 109,279.1 109.7,279.1 110.5,279.1 111.2,279.1 112,279.1 
		112.8,279.1 113.5,279 114.3,279 115.1,279 115.8,279 116.6,278.9 117.3,278.9 118.1,278.8 118.9,278.8 119.6,278.7 120.4,278.6 
		121.2,278.5 121.9,278.4 122.7,278.2 123.5,278.1 124.2,277.9 125,277.6 125.8,277.4 126.5,277 127.3,276.7 128,276.3 128.8,275.8 
		129.6,275.2 130.3,274.5 131.1,273.8 131.9,272.9 132.6,271.8 133.4,270.7 134.1,269.3 134.9,267.8 135.7,266 136.4,264.1 
		137.2,261.9 138,259.5 138.7,256.9 139.5,254 140.2,250.8 141,247.5 141.8,243.9 142.5,240.2 143.3,236.4 144.1,232.5 144.8,228.5 
		145.6,224.6 146.4,220.8 147.1,217.1 147.9,213.5 148.6,210.1 149.4,207 150.2,204.1 150.9,201.4 151.7,199 152.5,196.9 
		153.2,194.9 154,193.2 154.8,191.6 155.5,190.3 156.3,189.1 157,188.1 157.8,187.2 158.6,186.4 159.3,185.8 160.1,185.2 
		160.9,184.7 161.6,184.3 162.4,183.9 163.1,183.6 163.9,183.3 164.7,183.1 165.4,182.9 166.2,182.7 167,182.6 167.7,182.5 
		168.5,182.4 169.2,182.3 170,182.2 170.8,182.1 171.5,182.1 172.3,182 173.1,182 173.8,182 174.6,181.9 175.4,181.9 176.1,181.9 
		176.9,181.9 177.6,181.9 178.4,181.8 179.2,181.8 179.9,181.8 180.7,181.8 181.5,181.8 182.2,181.8 	"/>
	<polyline class="st4" points="106.7,327.9 107.4,327.9 108.2,327.9 109,327.9 109.7,327.9 110.5,327.9 111.2,327.9 112,327.9 
		112.8,327.9 113.5,327.9 114.3,327.9 115.1,327.9 115.8,327.9 116.6,327.9 117.3,327.9 118.1,327.9 118.9,327.9 119.6,327.9 
		120.4,327.9 121.2,327.9 121.9,327.9 122.7,327.9 123.5,327.9 124.2,327.9 125,327.9 125.8,327.9 126.5,327.9 127.3,327.9 
		128,327.9 128.8,327.9 129.6,327.9 130.3,327.9 131.1,327.9 131.9,327.9 132.6,327.9 133.4,327.9 134.1,327.9 134.9,327.9 
		135.7,327.9 136.4,327.9 137.2,327.9 138,327.9 138.7,327.9 139.5,327.9 140.2,327.9 141,327.9 141.8,327.9 142.5,327.9 
		143.3,327.9 144.1,327.9 144.8,327.9 145.6,327.9 146.4,327.9 147.1,327.9 147.9,327.9 148.6,327.9 149.4,327.9 150.2,327.9 
		150.9,327.9 151.7,327.9 152.5,327.9 153.2,327.9 154,327.9 154.8,327.9 155.5,327.9 156.3,327.9 157,327.9 157.8,327.9 
		158.6,327.9 159.3,327.9 160.1,327.9 160.9,327.9 161.6,327.9 162.4,327.9 163.1,327.9 163.9,327.9 164.7,327.9 165.4,327.9 
		166.2,327.9 167,327.9 167.7,327.9 168.5,327.9 169.2,327.9 170,327.9 170.8,327.9 171.5,327.9 172.3,327.9 173.1,327.9 
		173.8,327.9 174.6,327.9 175.4,327.9 176.1,327.9 176.9,327.9 177.6,327.9 178.4,327.9 179.2,327.9 179.9,327.9 180.7,327.9 
		181.5,327.9 182.2,327.9 	"/>
	<polyline class="st5" points="106.7,425.3 107.4,425.3 108.2,425.3 109,425.3 109.7,425.3 110.5,425.3 111.2,425.3 112,425.3 
		112.8,425.3 113.5,425.2 114.3,425.2 115.1,425.2 115.8,425.2 116.6,425.2 117.3,425.2 118.1,425.1 118.9,425.1 119.6,425.1 
		120.4,425 121.2,425 121.9,424.9 122.7,424.8 123.5,424.8 124.2,424.7 125,424.5 125.8,424.4 126.5,424.2 127.3,424.1 128,423.9 
		128.8,423.6 129.6,423.3 130.3,423 131.1,422.6 131.9,422.2 132.6,421.6 133.4,421.1 134.1,420.4 134.9,419.6 135.7,418.8 
		136.4,417.8 137.2,416.7 138,415.5 138.7,414.1 139.5,412.7 140.2,411.1 141,409.5 141.8,407.7 142.5,405.8 143.3,403.9 144.1,402 
		144.8,400 145.6,398 146.4,396.1 147.1,394.3 147.9,392.5 148.6,390.8 149.4,389.2 150.2,387.8 150.9,386.5 151.7,385.2 
		152.5,384.1 153.2,383.2 154,382.3 154.8,381.5 155.5,380.9 156.3,380.3 157,379.8 157.8,379.3 158.6,378.9 159.3,378.6 
		160.1,378.3 160.9,378.1 161.6,377.9 162.4,377.7 163.1,377.5 163.9,377.4 164.7,377.3 165.4,377.2 166.2,377.1 167,377 167.7,377 
		168.5,376.9 169.2,376.9 170,376.8 170.8,376.8 171.5,376.8 172.3,376.7 173.1,376.7 173.8,376.7 174.6,376.7 175.4,376.7 
		176.1,376.7 176.9,376.7 177.6,376.6 178.4,376.6 179.2,376.6 179.9,376.6 180.7,376.6 181.5,376.6 182.2,376.6 	"/>
	<polyline class="st6" points="106.7,376.6 107.4,376.5 108.2,376.5 109,376.5 109.7,376.5 110.5,376.5 111.2,376.5 112,376.5 
		112.8,376.4 113.5,376.4 114.3,376.4 115.1,376.3 115.8,376.3 116.6,376.2 117.3,376.1 118.1,376.1 118.9,376 119.6,375.9 
		120.4,375.7 121.2,375.6 121.9,375.4 122.7,375.2 123.5,374.9 124.2,374.6 125,374.3 125.8,373.9 126.5,373.4 127.3,372.9 
		128,372.2 128.8,371.5 129.6,370.6 130.3,369.6 131.1,368.5 131.9,367.1 132.6,365.6 133.4,363.8 134.1,361.8 134.9,359.5 
		135.7,356.9 136.4,354 137.2,350.7 138,347.1 138.7,343.1 139.5,338.7 140.2,334 141,329 141.8,323.7 142.5,318.1 143.3,312.4 
		144.1,306.5 144.8,300.6 145.6,294.7 146.4,289 147.1,283.4 147.9,278.1 148.6,273 149.4,268.4 150.2,264 150.9,260 151.7,256.4 
		152.5,253.1 153.2,250.2 154,247.6 154.8,245.3 155.5,243.3 156.3,241.5 157,240 157.8,238.6 158.6,237.5 159.3,236.5 160.1,235.6 
		160.9,234.9 161.6,234.2 162.4,233.7 163.1,233.2 163.9,232.8 164.7,232.5 165.4,232.2 166.2,231.9 167,231.7 167.7,231.5 
		168.5,231.4 169.2,231.2 170,231.1 170.8,231 171.5,231 172.3,230.9 173.1,230.8 173.8,230.8 174.6,230.7 175.4,230.7 176.1,230.7 
		176.9,230.6 177.6,230.6 178.4,230.6 179.2,230.6 179.9,230.6 180.7,230.5 181.5,230.5 182.2,230.5 	"/>
	<rect x="103.6" y="218.8" class="st7" width="6.2" height="28"/>
	<text transform="matrix(1 0 0 1 103.5908 239.0996)" class="st8 st9 st10">|</text>
	<rect x="103.6" y="267.5" class="st7" width="6.2" height="28"/>
	<text transform="matrix(1 0 0 1 103.5908 287.8096)" class="st11 st9 st10">|</text>
	<rect x="103.6" y="316.2" class="st7" width="6.2" height="28"/>
	<text transform="matrix(1 0 0 1 103.5908 336.5195)" class="st12 st9 st10">|</text>
	<rect x="103.6" y="413.6" class="st7" width="6.2" height="28"/>
	<text transform="matrix(1 0 0 1 103.5908 433.9404)" class="st13 st9 st10">|</text>
	<rect x="103.6" y="364.9" class="st7" width="6.2" height="28"/>
	<text transform="matrix(1 0 0 1 103.5908 385.2305)" class="st14 st9 st10">|</text>
	<rect x="179.1" y="267.5" class="st7" width="6.2" height="28"/>
	<text transform="matrix(1 0 0 1 179.1406 287.8096)" class="st11 st9 st10">|</text>
	<rect x="179.1" y="170" class="st7" width="6.2" height="28"/>
	<text transform="matrix(1 0 0 1 179.1406 190.3896)" class="st15 st9 st10">|</text>
	<rect x="179.1" y="316.2" class="st7" width="6.2" height="28"/>
	<text transform="matrix(1 0 0 1 179.1406 336.5195)" class="st12 st9 st10">|</text>
	<rect x="179.1" y="364.9" class="st7" width="6.2" height="28"/>
	<text transform="matrix(1 0 0 1 179.1406 385.2305)" class="st14 st9 st10">|</text>
	<rect x="179.1" y="218.8" class="st7" width="6.2" height="28"/>
	<text transform="matrix(1 0 0 1 179.1406 239.0996)" class="st8 st9 st10">|</text>
	<g>
		<g class="st16">
			<rect class="st17" width="270" height="554.4"/>
			<polyline class="st18" points="106.7,265.5 107.4,265.5 108.2,265.5 109,265.5 109.7,265.5 110.5,265.5 111.2,265.5 112,265.5 
				112.8,265.5 113.5,265.5 114.3,265.6 115.1,265.6 115.8,265.6 116.6,265.6 117.3,265.6 118.1,265.7 118.9,265.7 119.6,265.7 
				120.4,265.8 121.2,265.8 121.9,265.9 122.7,266 123.5,266 124.2,266.1 125,266.3 125.8,266.4 126.5,266.5 127.3,266.7 128,266.9 
				128.8,267.2 129.6,267.5 130.3,267.8 131.1,268.2 131.9,268.6 132.6,269.2 133.4,269.8 134.1,270.4 134.9,271.2 135.7,272 
				136.4,273 137.2,274.1 138,275.3 138.7,276.6 139.5,278.1 140.2,279.7 141,281.4 141.8,283.1 142.5,285 143.3,286.9 144.1,288.9 
				144.8,290.8 145.6,292.8 146.4,294.7 147.1,296.5 147.9,298.3 148.6,300 149.4,301.6 150.2,303 150.9,304.4 151.7,305.6 
				152.5,306.6 153.2,307.6 154,308.5 154.8,309.2 155.5,309.9 156.3,310.5 157,311 157.8,311.5 158.6,311.9 159.3,312.2 
				160.1,312.5 160.9,312.7 161.6,312.9 162.4,313.1 163.1,313.3 163.9,313.4 164.7,313.5 165.4,313.6 166.2,313.7 167,313.8 
				167.7,313.8 168.5,313.9 169.2,313.9 170,314 170.8,314 171.5,314 172.3,314.1 173.1,314.1 173.8,314.1 174.6,314.1 175.4,314.1 
				176.1,314.1 176.9,314.1 177.6,314.1 178.4,314.1 179.2,314.2 179.9,314.2 180.7,314.2 181.5,314.2 182.2,314.2 			"/>
			<polyline class="st19" points="106.7,314.2 107.4,314.1 108.2,314.1 109,314.1 109.7,314.1 110.5,314.1 111.2,314.1 112,314.1 
				112.8,314.1 113.5,314 114.3,314 115.1,314 115.8,314 116.6,313.9 117.3,313.9 118.1,313.8 118.9,313.8 119.6,313.7 120.4,313.6 
				121.2,313.5 121.9,313.4 122.7,313.2 123.5,313.1 124.2,312.9 125,312.6 125.8,312.4 126.5,312 127.3,311.7 128,311.3 
				128.8,310.8 129.6,310.2 130.3,309.5 131.1,308.8 131.9,307.9 132.6,306.8 133.4,305.7 134.1,304.3 134.9,302.8 135.7,301 
				136.4,299.1 137.2,296.9 138,294.5 138.7,291.9 139.5,289 140.2,285.8 141,282.5 141.8,278.9 142.5,275.2 143.3,271.4 
				144.1,267.5 144.8,263.5 145.6,259.6 146.4,255.8 147.1,252.1 147.9,248.5 148.6,245.1 149.4,242 150.2,239.1 150.9,236.4 
				151.7,234 152.5,231.9 153.2,229.9 154,228.2 154.8,226.6 155.5,225.3 156.3,224.1 157,223.1 157.8,222.2 158.6,221.4 
				159.3,220.8 160.1,220.2 160.9,219.7 161.6,219.3 162.4,218.9 163.1,218.6 163.9,218.3 164.7,218.1 165.4,217.9 166.2,217.7 
				167,217.6 167.7,217.5 168.5,217.4 169.2,217.3 170,217.2 170.8,217.1 171.5,217.1 172.3,217 173.1,217 173.8,217 174.6,216.9 
				175.4,216.9 176.1,216.9 176.9,216.9 177.6,216.9 178.4,216.8 179.2,216.8 179.9,216.8 180.7,216.8 181.5,216.8 182.2,216.8 			
				"/>
			<polyline class="st20" points="106.7,362.9 107.4,362.9 108.2,362.9 109,362.9 109.7,362.9 110.5,362.9 111.2,362.9 112,362.9 
				112.8,362.9 113.5,362.9 114.3,362.9 115.1,362.9 115.8,362.9 116.6,362.9 117.3,362.9 118.1,362.9 118.9,362.9 119.6,362.9 
				120.4,362.9 121.2,362.9 121.9,362.9 122.7,362.9 123.5,362.9 124.2,362.9 125,362.9 125.8,362.9 126.5,362.9 127.3,362.9 
				128,362.9 128.8,362.9 129.6,362.9 130.3,362.9 131.1,362.9 131.9,362.9 132.6,362.9 133.4,362.9 134.1,362.9 134.9,362.9 
				135.7,362.9 136.4,362.9 137.2,362.9 138,362.9 138.7,362.9 139.5,362.9 140.2,362.9 141,362.9 141.8,362.9 142.5,362.9 
				143.3,362.9 144.1,362.9 144.8,362.9 145.6,362.9 146.4,362.9 147.1,362.9 147.9,362.9 148.6,362.9 149.4,362.9 150.2,362.9 
				150.9,362.9 151.7,362.9 152.5,362.9 153.2,362.9 154,362.9 154.8,362.9 155.5,362.9 156.3,362.9 157,362.9 157.8,362.9 
				158.6,362.9 159.3,362.9 160.1,362.9 160.9,362.9 161.6,362.9 162.4,362.9 163.1,362.9 163.9,362.9 164.7,362.9 165.4,362.9 
				166.2,362.9 167,362.9 167.7,362.9 168.5,362.9 169.2,362.9 170,362.9 170.8,362.9 171.5,362.9 172.3,362.9 173.1,362.9 
				173.8,362.9 174.6,362.9 175.4,362.9 176.1,362.9 176.9,362.9 177.6,362.9 178.4,362.9 179.2,362.9 179.9,362.9 180.7,362.9 
				181.5,362.9 182.2,362.9 			"/>
			<polyline class="st21" points="106.7,216.9 107.4,216.9 108.2,216.9 109,216.9 109.7,216.9 110.5,216.9 111.2,217 112,217 
				112.8,217.1 113.5,217.1 114.3,217.2 115.1,217.2 115.8,217.3 116.6,217.4 117.3,217.6 118.1,217.7 118.9,217.9 119.6,218 
				120.4,218.3 121.2,218.5 121.9,218.8 122.7,219.2 123.5,219.6 124.2,220.1 125,220.7 125.8,221.3 126.5,222.1 127.3,223 
				128,224.1 128.8,225.3 129.6,226.8 130.3,228.4 131.1,230.4 131.9,232.6 132.6,235.2 133.4,238.1 134.1,241.5 134.9,245.3 
				135.7,249.6 136.4,254.5 137.2,259.9 138,266 138.7,272.6 139.5,279.9 140.2,287.7 141,296.1 141.8,305 142.5,314.3 143.3,323.9 
				144.1,333.6 144.8,343.5 145.6,353.2 146.4,362.8 147.1,372.1 147.9,381 148.6,389.4 149.4,397.2 150.2,404.5 150.9,411.1 
				151.7,417.2 152.5,422.6 153.2,427.5 154,431.8 154.8,435.6 155.5,439 156.3,441.9 157,444.5 157.8,446.7 158.6,448.7 
				159.3,450.3 160.1,451.8 160.9,453 161.6,454.1 162.4,455 163.1,455.8 163.9,456.4 164.7,457 165.4,457.5 166.2,457.9 167,458.3 
				167.7,458.6 168.5,458.8 169.2,459 170,459.2 170.8,459.4 171.5,459.5 172.3,459.7 173.1,459.8 173.8,459.8 174.6,459.9 
				175.4,460 176.1,460 176.9,460.1 177.6,460.1 178.4,460.1 179.2,460.2 179.9,460.2 180.7,460.2 181.5,460.2 182.2,460.2 			"/>
			<polyline class="st22" points="106.7,460.3 107.4,460.3 108.2,460.3 109,460.3 109.7,460.3 110.5,460.3 111.2,460.3 112,460.3 
				112.8,460.3 113.5,460.2 114.3,460.2 115.1,460.2 115.8,460.2 116.6,460.2 117.3,460.2 118.1,460.1 118.9,460.1 119.6,460.1 
				120.4,460 121.2,460 121.9,459.9 122.7,459.8 123.5,459.8 124.2,459.7 125,459.5 125.8,459.4 126.5,459.2 127.3,459.1 128,458.9 
				128.8,458.6 129.6,458.3 130.3,458 131.1,457.6 131.9,457.2 132.6,456.6 133.4,456.1 134.1,455.4 134.9,454.6 135.7,453.8 
				136.4,452.8 137.2,451.7 138,450.5 138.7,449.1 139.5,447.7 140.2,446.1 141,444.5 141.8,442.7 142.5,440.8 143.3,438.9 
				144.1,437 144.8,435 145.6,433 146.4,431.1 147.1,429.3 147.9,427.5 148.6,425.8 149.4,424.2 150.2,422.8 150.9,421.5 
				151.7,420.2 152.5,419.1 153.2,418.2 154,417.3 154.8,416.5 155.5,415.9 156.3,415.3 157,414.8 157.8,414.3 158.6,413.9 
				159.3,413.6 160.1,413.3 160.9,413.1 161.6,412.9 162.4,412.7 163.1,412.5 163.9,412.4 164.7,412.3 165.4,412.2 166.2,412.1 
				167,412 167.7,412 168.5,411.9 169.2,411.9 170,411.8 170.8,411.8 171.5,411.8 172.3,411.7 173.1,411.7 173.8,411.7 174.6,411.7 
				175.4,411.7 176.1,411.7 176.9,411.7 177.6,411.6 178.4,411.6 179.2,411.6 179.9,411.6 180.7,411.6 181.5,411.6 182.2,411.6 			
				"/>
			<polyline class="st23" points="106.7,411.6 107.4,411.5 108.2,411.5 109,411.5 109.7,411.5 110.5,411.5 111.2,411.5 112,411.5 
				112.8,411.4 113.5,411.4 114.3,411.4 115.1,411.3 115.8,411.3 116.6,411.2 117.3,411.1 118.1,411.1 118.9,411 119.6,410.9 
				120.4,410.7 121.2,410.6 121.9,410.4 122.7,410.2 123.5,409.9 124.2,409.6 125,409.3 125.8,408.9 126.5,408.4 127.3,407.9 
				128,407.2 128.8,406.5 129.6,405.6 130.3,404.6 131.1,403.5 131.9,402.1 132.6,400.6 133.4,398.8 134.1,396.8 134.9,394.5 
				135.7,391.9 136.4,389 137.2,385.7 138,382.1 138.7,378.1 139.5,373.7 140.2,369 141,364 141.8,358.7 142.5,353.1 143.3,347.4 
				144.1,341.5 144.8,335.6 145.6,329.7 146.4,324 147.1,318.4 147.9,313.1 148.6,308 149.4,303.4 150.2,299 150.9,295 151.7,291.4 
				152.5,288.1 153.2,285.2 154,282.6 154.8,280.3 155.5,278.3 156.3,276.5 157,275 157.8,273.6 158.6,272.5 159.3,271.5 
				160.1,270.6 160.9,269.9 161.6,269.2 162.4,268.7 163.1,268.2 163.9,267.8 164.7,267.5 165.4,267.2 166.2,266.9 167,266.7 
				167.7,266.5 168.5,266.4 169.2,266.2 170,266.1 170.8,266 171.5,266 172.3,265.9 173.1,265.8 173.8,265.8 174.6,265.7 
				175.4,265.7 176.1,265.7 176.9,265.6 177.6,265.6 178.4,265.6 179.2,265.6 179.9,265.6 180.7,265.5 181.5,265.5 182.2,265.5 			
				"/>
			<rect x="103.6" y="253.8" class="st24" width="6.2" height="28"/>
			<text transform="matrix(1 0 0 1 103.5908 274.0996)" class="st25 st9 st10">|</text>
			<rect x="103.6" y="302.5" class="st24" width="6.2" height="28"/>
			<text transform="matrix(1 0 0 1 103.5908 322.8096)" class="st26 st9 st10">|</text>
			<rect x="103.6" y="351.2" class="st24" width="6.2" height="28"/>
			<text transform="matrix(1 0 0 1 103.5908 371.5195)" class="st27 st9 st10">|</text>
			<rect x="103.6" y="205" class="st24" width="6.2" height="28"/>
			<text transform="matrix(1 0 0 1 103.5908 225.3896)" class="st28 st9 st10">|</text>
			<rect x="103.6" y="448.6" class="st24" width="6.2" height="28"/>
			<text transform="matrix(1 0 0 1 103.5908 468.9404)" class="st29 st9 st10">|</text>
			<rect x="103.6" y="399.9" class="st24" width="6.2" height="28"/>
			<text transform="matrix(1 0 0 1 103.5908 420.2305)" class="st30 st9 st10">|</text>
			<rect x="179.1" y="302.5" class="st24" width="6.2" height="28"/>
			<text transform="matrix(1 0 0 1 179.1406 322.8096)" class="st26 st9 st10">|</text>
			<rect x="179.1" y="205" class="st24" width="6.2" height="28"/>
			<text transform="matrix(1 0 0 1 179.1406 225.3896)" class="st28 st9 st10">|</text>
			<rect x="179.1" y="351.2" class="st24" width="6.2" height="28"/>
			<text transform="matrix(1 0 0 1 179.1406 371.5195)" class="st27 st9 st10">|</text>
			<rect x="179.1" y="448.6" class="st24" width="6.2" height="28"/>
			<text transform="matrix(1 0 0 1 179.1406 468.9404)" class="st29 st9 st10">|</text>
			<rect x="179.1" y="399.9" class="st24" width="6.2" height="28"/>
			<text transform="matrix(1 0 0 1 179.1406 420.2305)" class="st30 st9 st10">|</text>
			<rect x="179.1" y="253.8" class="st24" width="6.2" height="28"/>
			<text transform="matrix(1 0 0 1 179.1406 274.0996)" class="st25 st9 st10">|</text>
			<text transform="matrix(1 0 0 1 51.3394 269.44)" class="st31 st9 st32">$106.6M/c</text>
			<text transform="matrix(1 0 0 1 57.4794 318.15)" class="st31 st9 st32">$86.6M/c</text>
			<text transform="matrix(1 0 0 1 66.6866 366.86)" class="st31 st9 st32">$84M/c</text>
			<rect x="52.2" y="211.3" class="st24" width="51.5" height="13.1"/>
			<text transform="matrix(1 0 0 1 52.1592 220.7305)" class="st33"><tspan x="0" y="0" class="st9 st32">$114.4M</tspan><tspan x="48.4" y="0" class="st9 st32">/</tspan></text>
			<text transform="matrix(1 0 0 1 57.4794 464.28)" class="st31 st9 st32">$75.7M/c</text>
			<text transform="matrix(1 0 0 1 57.4794 415.57)" class="st31 st9 st32">$83.4M/c</text>
			<text transform="matrix(1 0 0 1 186 318.15)" class="st31 st9 st32">125.9k</text>
			<text transform="matrix(1 0 0 1 186 220.73)" class="st31 st9 st32">228.1k</text>
			<text transform="matrix(1 0 0 1 186 366.86)" class="st31 st9 st32">93.7k</text>
			<text transform="matrix(1 0 0 1 186 464.28)" class="st31 st9 st32">75.9k</text>
			<text transform="matrix(1 0 0 1 186 415.57)" class="st31 st9 st32">91.2k</text>
			<text transform="matrix(1 0 0 1 186 269.44)" class="st31 st9 st32">133.2k</text>
			<polygon class="st24" points="27.7,274.2 44.1,274.2 44,274.2 44.3,274.2 44.7,274.2 45,274 45.3,273.9 45.6,273.6 45.8,273.4 
				46,273.1 46.1,272.8 46.2,272.4 46.2,272.1 46.2,272.1 46.2,258.9 46.2,258.9 46.2,258.5 46.1,258.2 46,257.9 45.8,257.6 
				45.6,257.3 45.3,257.1 45,256.9 44.7,256.8 44.3,256.7 44.1,256.7 27.7,256.7 28,256.7 27.6,256.7 27.3,256.8 26.9,256.9 
				26.6,257 26.3,257.2 26.1,257.4 25.9,257.7 25.7,258 25.6,258.4 25.5,258.7 25.5,258.9 25.5,272.1 25.5,271.9 25.5,272.3 
				25.6,272.6 25.7,272.9 25.9,273.2 26.1,273.5 26.3,273.8 26.6,274 26.9,274.1 27.3,274.2 27.6,274.2 			"/>
			<rect x="29.1" y="258.7" class="st24" width="13.5" height="13.1"/>
			<text transform="matrix(1 0 0 1 29.1133 268.2197)" class="st31 st9 st32">A</text>
			<polygon class="st24" points="25.2,323 44.1,323 44,323 44.3,323 44.7,322.9 45,322.8 45.3,322.6 45.6,322.4 45.8,322.1 
				46,321.8 46.1,321.5 46.2,321.1 46.2,320.8 46.2,320.8 46.2,307.6 46.2,307.6 46.2,307.2 46.1,306.9 46,306.6 45.8,306.3 
				45.6,306 45.3,305.8 45,305.6 44.7,305.5 44.3,305.4 44.1,305.4 25.2,305.4 25.5,305.4 25.2,305.4 24.8,305.5 24.5,305.6 
				24.2,305.7 23.9,305.9 23.6,306.1 23.4,306.4 23.3,306.7 23.1,307.1 23.1,307.4 23.1,307.6 23.1,320.8 23.1,320.6 23.1,321 
				23.1,321.3 23.3,321.6 23.4,322 23.6,322.2 23.9,322.5 24.2,322.7 24.5,322.8 24.8,322.9 25.2,323 			"/>
			<text transform="matrix(1 0 0 1 26.69 316.93)" class="st31 st9 st32">GA</text>
			<polygon class="st24" points="26.5,371.7 44.1,371.7 44,371.7 44.3,371.7 44.7,371.6 45,371.5 45.3,371.3 45.6,371.1 45.8,370.8 
				46,370.5 46.1,370.2 46.2,369.9 46.2,369.5 46.2,369.5 46.2,356.3 46.2,356.3 46.2,355.9 46.1,355.6 46,355.3 45.8,355 
				45.6,354.7 45.3,354.5 45,354.3 44.7,354.2 44.3,354.1 44.1,354.1 26.5,354.1 26.7,354.1 26.4,354.1 26,354.2 25.7,354.3 
				25.4,354.4 25.1,354.6 24.9,354.9 24.6,355.1 24.5,355.4 24.4,355.8 24.3,356.1 24.3,356.3 24.3,369.5 24.3,369.3 24.3,369.7 
				24.4,370 24.5,370.4 24.6,370.7 24.9,371 25.1,371.2 25.4,371.4 25.7,371.5 26,371.6 26.4,371.7 			"/>
			<rect x="27.9" y="356.2" class="st24" width="14.7" height="13.1"/>
			<text transform="matrix(1 0 0 1 27.9102 365.6396)" class="st31 st9 st32">K</text>
			<polygon class="st24" points="24.6,225.5 44.1,225.5 44,225.5 44.3,225.5 44.7,225.5 45,225.3 45.3,225.2 45.6,224.9 45.8,224.7 
				46,224.4 46.1,224.1 46.2,223.7 46.2,223.4 46.2,223.4 46.2,210.2 46.2,210.2 46.2,209.8 46.1,209.5 46,209.1 45.8,208.9 
				45.6,208.6 45.3,208.4 45,208.2 44.7,208.1 44.3,208 44.1,208 24.6,208 24.9,208 24.5,208 24.2,208 23.9,208.1 23.6,208.3 
				23.3,208.5 23,208.7 22.8,209 22.6,209.3 22.5,209.6 22.5,210 22.5,210.2 22.5,223.4 22.5,223.2 22.5,223.6 22.5,223.9 
				22.6,224.2 22.8,224.5 23,224.8 23.3,225.1 23.6,225.2 23.9,225.4 24.2,225.5 24.5,225.5 			"/>
			<text transform="matrix(1 0 0 1 26.08 219.51)" class="st31 st9 st32">MS</text>
			<polygon class="st24" points="25.9,469.1 44.1,469.1 44,469.1 44.3,469.1 44.7,469 45,468.9 45.3,468.7 45.6,468.5 45.8,468.2 
				46,467.9 46.1,467.6 46.2,467.3 46.2,466.9 46.2,466.9 46.2,453.7 46.2,453.7 46.2,453.4 46.1,453 46,452.7 45.8,452.4 
				45.6,452.1 45.3,451.9 45,451.8 44.7,451.6 44.3,451.6 44.1,451.5 25.9,451.5 26.1,451.6 25.8,451.5 25.4,451.6 25.1,451.7 
				24.8,451.8 24.5,452 24.2,452.3 24,452.5 23.9,452.9 23.8,453.2 23.7,453.5 23.7,453.7 23.7,466.9 23.7,466.8 23.7,467.1 
				23.8,467.5 23.9,467.8 24,468.1 24.2,468.4 24.5,468.6 24.8,468.8 25.1,469 25.4,469 25.8,469.1 			"/>
			<text transform="matrix(1 0 0 1 27.31 463.06)" class="st31 st9 st32">SC</text>
			<polygon class="st24" points="26.5,420.4 44.1,420.4 44,420.4 44.3,420.4 44.7,420.3 45,420.2 45.3,420 45.6,419.8 45.8,419.5 
				46,419.2 46.1,418.9 46.2,418.6 46.2,418.2 46.2,418.2 46.2,405 46.2,405 46.2,404.6 46.1,404.3 46,404 45.8,403.7 45.6,403.4 
				45.3,403.2 45,403 44.7,402.9 44.3,402.9 44.1,402.8 26.5,402.8 26.8,402.9 26.4,402.8 26,402.9 25.7,403 25.4,403.1 25.1,403.3 
				24.9,403.6 24.7,403.8 24.5,404.1 24.4,404.5 24.3,404.8 24.3,405 24.3,418.2 24.3,418 24.3,418.4 24.4,418.7 24.5,419.1 
				24.7,419.4 24.9,419.7 25.1,419.9 25.4,420.1 25.7,420.2 26,420.3 26.4,420.4 			"/>
			<text transform="matrix(1 0 0 1 27.92 414.35)" class="st31 st9 st32">TN</text>
			<polygon class="st24" points="225.9,323 242.3,323 242.2,323 242.6,323 242.9,322.9 243.2,322.8 243.5,322.6 243.8,322.4 
				244,322.1 244.2,321.8 244.4,321.5 244.4,321.1 244.5,320.8 244.5,320.8 244.5,307.6 244.5,307.6 244.4,307.2 244.4,306.9 
				244.2,306.6 244,306.3 243.8,306 243.5,305.8 243.2,305.6 242.9,305.5 242.6,305.4 242.3,305.4 225.9,305.4 226.2,305.4 
				225.9,305.4 225.5,305.5 225.2,305.6 224.9,305.7 224.6,305.9 224.3,306.1 224.1,306.4 223.9,306.7 223.8,307.1 223.8,307.4 
				223.8,307.6 223.8,320.8 223.8,320.6 223.8,321 223.8,321.3 223.9,321.6 224.1,322 224.3,322.2 224.6,322.5 224.9,322.7 
				225.2,322.8 225.5,322.9 225.9,323 			"/>
			<rect x="227.4" y="307.5" class="st24" width="13.5" height="13.1"/>
			<text transform="matrix(1 0 0 1 227.3525 316.9297)" class="st31 st9 st32">A</text>
			<polygon class="st24" points="225.9,225.5 244.8,225.5 244.7,225.5 245,225.5 245.4,225.5 245.7,225.3 246,225.2 246.2,224.9 
				246.5,224.7 246.7,224.4 246.8,224.1 246.9,223.7 246.9,223.4 246.9,223.4 246.9,210.2 246.9,210.2 246.9,209.8 246.8,209.5 
				246.7,209.1 246.5,208.9 246.2,208.6 246,208.4 245.7,208.2 245.4,208.1 245,208 244.8,208 225.9,208 226.2,208 225.9,208 
				225.5,208 225.2,208.1 224.9,208.3 224.6,208.5 224.3,208.7 224.1,209 223.9,209.3 223.8,209.6 223.8,210 223.8,210.2 
				223.8,223.4 223.8,223.2 223.8,223.6 223.8,223.9 223.9,224.2 224.1,224.5 224.3,224.8 224.6,225.1 224.9,225.2 225.2,225.4 
				225.5,225.5 225.9,225.5 			"/>
			<text transform="matrix(1 0 0 1 227.37 219.51)" class="st31 st9 st32">GA</text>
			<polygon class="st24" points="225.9,371.7 243.5,371.7 243.4,371.7 243.8,371.7 244.1,371.6 244.5,371.5 244.8,371.3 245,371.1 
				245.3,370.8 245.4,370.5 245.6,370.2 245.7,369.9 245.7,369.5 245.7,369.5 245.7,356.3 245.7,356.3 245.7,355.9 245.6,355.6 
				245.4,355.3 245.3,355 245,354.7 244.8,354.5 244.5,354.3 244.1,354.2 243.8,354.1 243.5,354.1 225.9,354.1 226.2,354.1 
				225.9,354.1 225.5,354.2 225.2,354.3 224.9,354.4 224.6,354.6 224.3,354.9 224.1,355.1 223.9,355.4 223.8,355.8 223.8,356.1 
				223.8,356.3 223.8,369.5 223.8,369.3 223.8,369.7 223.8,370 223.9,370.4 224.1,370.7 224.3,371 224.6,371.2 224.9,371.4 
				225.2,371.5 225.5,371.6 225.9,371.7 			"/>
			<rect x="227.4" y="356.2" class="st24" width="14.7" height="13.1"/>
			<text transform="matrix(1 0 0 1 227.3701 365.6396)" class="st31 st9 st32">K</text>
			<polygon class="st24" points="225.9,469.1 245.4,469.1 245.3,469.1 245.6,469.1 246,469 246.3,468.9 246.6,468.7 246.9,468.5 
				247.1,468.2 247.3,467.9 247.4,467.6 247.5,467.3 247.5,466.9 247.5,466.9 247.5,453.7 247.5,453.7 247.5,453.4 247.4,453 
				247.3,452.7 247.1,452.4 246.9,452.1 246.6,451.9 246.3,451.8 246,451.6 245.6,451.6 245.4,451.5 225.9,451.5 226.2,451.6 
				225.9,451.5 225.5,451.6 225.2,451.7 224.9,451.8 224.6,452 224.3,452.3 224.1,452.5 223.9,452.9 223.8,453.2 223.8,453.5 
				223.8,453.7 223.8,466.9 223.8,466.8 223.8,467.1 223.8,467.5 223.9,467.8 224.1,468.1 224.3,468.4 224.6,468.6 224.9,468.8 
				225.2,469 225.5,469 225.9,469.1 			"/>
			<text transform="matrix(1 0 0 1 227.37 463.06)" class="st31 st9 st32">MS</text>
			<polygon class="st24" points="225.9,420.4 244.1,420.4 244.1,420.4 244.4,420.4 244.7,420.3 245.1,420.2 245.4,420 245.6,419.8 
				245.9,419.5 246.1,419.2 246.2,418.9 246.3,418.6 246.3,418.2 246.3,418.2 246.3,405 246.3,405 246.3,404.6 246.2,404.3 
				246.1,404 245.9,403.7 245.6,403.4 245.4,403.2 245.1,403 244.7,402.9 244.4,402.9 244.1,402.8 225.9,402.8 226.2,402.9 
				225.9,402.8 225.5,402.9 225.2,403 224.9,403.1 224.6,403.3 224.3,403.6 224.1,403.8 223.9,404.1 223.8,404.5 223.8,404.8 
				223.8,405 223.8,418.2 223.8,418 223.8,418.4 223.8,418.7 223.9,419.1 224.1,419.4 224.3,419.7 224.6,419.9 224.9,420.1 
				225.2,420.2 225.5,420.3 225.9,420.4 			"/>
			<text transform="matrix(1 0 0 1 227.37 414.35)" class="st31 st9 st32">SC</text>
			<polygon class="st24" points="225.9,274.2 243.5,274.2 243.4,274.2 243.8,274.2 244.1,274.2 244.4,274 244.7,273.9 245,273.6 
				245.2,273.4 245.4,273.1 245.6,272.8 245.6,272.4 245.7,272.1 245.7,272.1 245.7,258.9 245.7,258.9 245.6,258.5 245.6,258.2 
				245.4,257.9 245.2,257.6 245,257.3 244.7,257.1 244.4,256.9 244.1,256.8 243.8,256.7 243.5,256.7 225.9,256.7 226.2,256.7 
				225.9,256.7 225.5,256.8 225.2,256.9 224.9,257 224.6,257.2 224.3,257.4 224.1,257.7 223.9,258 223.8,258.4 223.8,258.7 
				223.8,258.9 223.8,272.1 223.8,271.9 223.8,272.3 223.8,272.6 223.9,272.9 224.1,273.2 224.3,273.5 224.6,273.8 224.9,274 
				225.2,274.1 225.5,274.2 225.9,274.2 			"/>
			<text transform="matrix(1 0 0 1 227.37 268.22)" class="st31 st9 st32">TN</text>
			<rect x="10" y="143" class="st24" width="36.8" height="17.4"/>
			<text transform="matrix(1 0 0 1 9.96 154.1201)" class="st34 st35 st36">Check</text>
			<text transform="matrix(1 0 0 1 50.43 154.12)" class="st34 st35 st36">out</text>
			<rect x="72.1" y="143" class="st24" width="23.9" height="17.4"/>
			<text transform="matrix(1 0 0 1 72.1104 154.1201)" class="st34 st35 st36">how</text>
			<rect x="99.6" y="143" class="st24" width="31.8" height="17.4"/>
			<text transform="matrix(1 0 0 1 99.5703 154.1201)" class="st34 st35 st36">many</text>
			<text transform="matrix(1 0 0 1 134.98 154.12)" class="st34 st35 st36">recipients</text>
			<text transform="matrix(1 0 0 1 194.23 154.12)" class="st34 st35 st36">they</text>
			<text transform="matrix(1 0 0 1 222.41 154.12)" class="st34 st35 st36">have.</text>
			<text transform="matrix(1 0 0 1 9.96 29.79)" class="st37 st38 st39">Mississippi</text>
			<rect x="112.2" y="13.5" class="st24" width="70.3" height="22.4"/>
			<text transform="matrix(1 0 0 1 112.2002 29.79)" class="st33"><tspan x="0" y="0" class="st40 st38 st39 st41">re</tspan><tspan x="64.2" y="0" class="st40 st38 st39">-</tspan></text>
			<rect x="193.4" y="13.5" class="st24" width="27.7" height="22.4"/>
			<text transform="matrix(1 0 0 1 193.3604 29.79)" class="st37 st38 st39">the</text>
			<rect x="10" y="37.4" class="st24" width="60.6" height="22.4"/>
			<text transform="matrix(1 0 0 1 9.96 53.7002)" class="st33"><tspan x="0" y="0" class="st40 st38 st39 st42">high</tspan><tspan x="54.5" y="0" class="st40 st38 st39">-</tspan></text>
			<rect x="74.5" y="37.4" class="st24" width="30.2" height="22.4"/>
			<text transform="matrix(1 0 0 1 74.46 53.7002)" class="st33"><tspan x="0" y="0" class="st40 st38 st39 st43">Pe</tspan><tspan x="25.3" y="0" class="st40 st38 st39">l</tspan></text>
			<rect x="113.4" y="37.4" class="st24" width="46.8" height="22.4"/>
			<text transform="matrix(1 0 0 1 113.3701 53.7002)" class="st33"><tspan x="0" y="0" class="st40 st38 st39 st43">Gra</tspan><tspan x="36" y="0" class="st40 st38 st39">n</tspan></text>
			<rect x="10" y="61.3" class="st24" width="63.7" height="22.4"/>
			<text transform="matrix(1 0 0 1 9.96 77.6104)" class="st37 st38 st39">funding</text>
			<rect x="81.1" y="61.3" class="st24" width="27.9" height="22.4"/>
			<text transform="matrix(1 0 0 1 81.1396 77.6104)" class="st37 st38 st39">per</text>
			<text transform="matrix(1 0 0 1 115.61 77.61)" class="st37 st38 st39">capita</text>
			<rect x="10" y="85.2" class="st24" width="45.5" height="22.4"/>
			<text transform="matrix(1 0 0 1 9.96 101.5195)" class="st37 st38 st39">while</text>
			<text transform="matrix(1 0 0 1 61.1 101.52)" class="st37 st38 st39">having</text>
			<rect x="125.6" y="85.2" class="st24" width="27.7" height="22.4"/>
			<text transform="matrix(1 0 0 1 125.5898 101.5195)" class="st37 st38 st39">the</text>
			<rect x="10" y="109.1" class="st24" width="55.5" height="22.4"/>
			<text transform="matrix(1 0 0 1 9.96 125.4297)" class="st33"><tspan x="0" y="0" class="st40 st38 st39 st44">fewe</tspan><tspan x="47.5" y="0" class="st40 st38 st39">s</tspan></text>
			<rect x="73.3" y="109.1" class="st24" width="77" height="22.4"/>
			<text transform="matrix(1 0 0 1 73.3301 125.4297)" class="st33"><tspan x="0" y="0" class="st40 st38 st39 st45">stu</tspan><tspan x="70.9" y="0" class="st40 st38 st39">-</tspan></text>
			<rect x="6.9" y="533.6" class="st24" width="253.2" height="13.4"/>
			<text transform="matrix(1 0 0 1 6.9395 542.2207)" class="st46 st35 st47">Insipred by Cédric Scherer | Visualizaiton by Bear Jordan</text>
		</g>
	</g>
	<g>
		<text transform="matrix(1 0 0 1 51.3395 235.2203)" class="st9 st32">$106.6M/c</text>
		<rect x="29.1" y="225.7" class="st7" width="13.5" height="13.1"/>
		<text transform="matrix(1 0 0 1 29.1133 235.2199)" class="st9 st32">A</text>
	</g>
	<g>
		<text transform="matrix(1 0 0 1 57.4799 283.9296)" class="st9 st32">$86.6M/c</text>
		<text transform="matrix(1 0 0 1 26.69 283.9303)" class="st9 st32">GA</text>
	</g>
	<g>
		<text transform="matrix(1 0 0 1 66.687 332.6396)" class="st9 st32">$84M/c</text>
		<rect x="27.9" y="323.2" class="st7" width="14.7" height="13.1"/>
		<text transform="matrix(1 0 0 1 27.9102 332.6396)" class="st9 st32">K</text>
	</g>
	<g>
		<rect x="50.4" y="177" class="st7" width="52.5" height="13.1"/>
		<text transform="matrix(1 0 0 1 50.3805 186.5073)" class="st48"><tspan x="0" y="0" class="st49 st32">$114.4M/</tspan><tspan x="46.4" y="0" class="st49 st32">c</tspan></text>
		<text transform="matrix(1 0 0 1 26.08 185.9387)" class="st49 st32">MS</text>
	</g>
	<g>
		<text transform="matrix(1 0 0 1 57.4799 430.6306)" class="st9 st32">$75.7M/c</text>
		<text transform="matrix(1 0 0 1 27.31 430.6313)" class="st9 st32">SC</text>
	</g>
	<g>
		<text transform="matrix(1 0 0 1 57.4799 381.3493)" class="st9 st32">$83.4M/c</text>
		<text transform="matrix(1 0 0 1 27.92 381.35)" class="st9 st32">TN</text>
	</g>
	<g>
		<text transform="matrix(1 0 0 1 186 283.9296)" class="st9 st32">125.9k</text>
		<rect x="226.4" y="274.5" class="st7" width="13.5" height="13.1"/>
		<text transform="matrix(1 0 0 1 226.3535 283.9297)" class="st9 st32">A</text>
	</g>
	<g>
		<g>
			<text transform="matrix(1 0 0 1 186 186.5098)" class="st9 st32">228.1k</text>
		</g>
		<text transform="matrix(1 0 0 1 226.37 186.51)" class="st9 st32">GA</text>
	</g>
	<g>
		<text transform="matrix(1 0 0 1 192.1396 332.6396)" class="st9 st32">93.7k</text>
		<rect x="226.4" y="323.2" class="st7" width="14.7" height="13.1"/>
		<text transform="matrix(1 0 0 1 226.3701 332.6396)" class="st9 st32">K</text>
	</g>
	<g>
		<text transform="matrix(1 0 0 1 191.5195 430.0593)" class="st49 st32">75.9k</text>
		<text transform="matrix(1 0 0 1 226.37 430.06)" class="st49 st32">MS</text>
	</g>
	<g>
		<text transform="matrix(1 0 0 1 192.1396 381.3493)" class="st9 st32">91.2k</text>
		<text transform="matrix(1 0 0 1 226.37 381.35)" class="st9 st32">SC</text>
	</g>
	<g>
		<text transform="matrix(1 0 0 1 186 235.2203)" class="st9 st32">133.2k</text>
		<text transform="matrix(1 0 0 1 226.37 235.22)" class="st9 st32">TN</text>
	</g>
	<polyline class="st50" points="106.7,181.9 107.4,181.9 108.2,181.9 109,181.9 109.7,181.9 110.5,181.9 111.2,182 112,182 
		112.8,182.1 113.5,182.1 114.3,182.2 115.1,182.2 115.8,182.3 116.6,182.4 117.3,182.6 118.1,182.7 118.9,182.9 119.6,183 
		120.4,183.3 121.2,183.5 121.9,183.8 122.7,184.2 123.5,184.6 124.2,185.1 125,185.7 125.8,186.3 126.5,187.1 127.3,188 128,189.1 
		128.8,190.3 129.6,191.8 130.3,193.4 131.1,195.4 131.9,197.6 132.6,200.2 133.4,203.1 134.1,206.5 134.9,210.3 135.7,214.6 
		136.4,219.5 137.2,224.9 138,231 138.7,237.6 139.5,244.9 140.2,252.7 141,261.1 141.8,270 142.5,279.3 143.3,288.9 144.1,298.6 
		144.8,308.5 145.6,318.2 146.4,327.8 147.1,337.1 147.9,346 148.6,354.4 149.4,362.2 150.2,369.5 150.9,376.1 151.7,382.2 
		152.5,387.6 153.2,392.5 154,396.8 154.8,400.6 155.5,404 156.3,406.9 157,409.5 157.8,411.7 158.6,413.7 159.3,415.3 160.1,416.8 
		160.9,418 161.6,419.1 162.4,420 163.1,420.8 163.9,421.4 164.7,422 165.4,422.5 166.2,422.9 167,423.3 167.7,423.6 168.5,423.8 
		169.2,424 170,424.2 170.8,424.4 171.5,424.5 172.3,424.7 173.1,424.8 173.8,424.8 174.6,424.9 175.4,425 176.1,425 176.9,425.1 
		177.6,425.1 178.4,425.1 179.2,425.2 179.9,425.2 180.7,425.2 181.5,425.2 182.2,425.2 	"/>
	<rect x="179.1" y="413.6" class="st7" width="6.2" height="28"/>
	<text transform="matrix(1 0 0 1 179.1406 433.9404)" class="st51 st9 st10">|</text>
	<rect x="103.6" y="170" class="st7" width="6.2" height="28"/>
	<text transform="matrix(1 0 0 1 103.5898 190.3896)" class="st51 st9 st10">|</text>
</g>
<g id="Text">
	<rect x="6.9" y="533.6" class="st7" width="253.2" height="13.4"/>
	<text transform="matrix(1 0 0 1 6.9395 542.2207)" class="st52 st35 st47">Insipred by Cédric Scherer | Visualizaiton by Bear Jordan</text>
	<rect x="11.7" y="11.7" class="st7" width="247.6" height="125.4"/>
	<text transform="matrix(1 0 0 1 11.7129 27.5122)"><tspan x="0" y="0" class="st53 st54">Mississippi had the highest </tspan><tspan x="0" y="26" class="st53 st54">Pell Grant funding per </tspan><tspan x="0" y="52" class="st53 st54">capita in 2017 while </tspan><tspan x="0" y="78" class="st53 st54">having the lowest number </tspan><tspan x="0" y="104" class="st53 st54">of recipients.</tspan></text>
</g>
</svg>
