<?xml version="1.0" encoding="utf-8"?>
<!-- Generator: Adobe Illustrator 26.4.1, SVG Export Plug-In . SVG Version: 6.00 Build 0)  -->
<svg version="1.1" xmlns="http://www.w3.org/2000/svg" xmlns:xlink="http://www.w3.org/1999/xlink" x="0px" y="0px"
	 viewBox="0 0 504 504" style="enable-background:new 0 0 504 504;" xml:space="preserve">
<style type="text/css">
	.st0{display:none;}
	.st1{display:inline;fill:none;}
	.st2{display:inline;}
	.st3{fill:none;stroke:#EBEBEB;stroke-width:0.53;stroke-linejoin:round;stroke-miterlimit:10;}
	.st4{fill:none;stroke:#EBEBEB;stroke-width:1.07;stroke-linejoin:round;stroke-miterlimit:10;}
	.st5{fill:none;stroke:#000000;stroke-width:0.85;stroke-linejoin:round;stroke-miterlimit:10;}
	.st6{fill:#00BA38;stroke:#00BA38;stroke-width:0.57;stroke-linecap:round;stroke-linejoin:round;stroke-miterlimit:10;}
	.st7{fill:#F8766D;stroke:#F8766D;stroke-width:0.57;stroke-linecap:round;stroke-linejoin:round;stroke-miterlimit:10;}
	.st8{fill:#619CFF;stroke:#619CFF;stroke-width:0.57;stroke-linecap:round;stroke-linejoin:round;stroke-miterlimit:10;}
	.st9{fill:none;}
	.st10{fill:#4D4D4D;}
	.st11{font-family:'ArialMT';}
	.st12{font-size:8.8px;}
	.st13{enable-background:new    ;}
	.st14{letter-spacing:1;}
	.st15{font-size:11px;}
	.st16{stroke:#000000;stroke-width:0.57;stroke-linecap:round;stroke-linejoin:round;stroke-miterlimit:10;}
</style>
<g id="Layer_1" class="st0">
	<rect class="st1" width="504" height="504"/>
	<g>
		<defs>
			<rect id="SVGID_1_" width="504" height="504"/>
		</defs>
		<clipPath id="SVGID_00000152242141943886133470000007464748079227951490_" class="st2">
			<use xlink:href="#SVGID_1_"  style="overflow:visible;"/>
		</clipPath>
	</g>
	<g>
		<defs>
			<rect id="SVGID_00000000190298031557892990000000726165618917385911_" y="73.5" width="504" height="357.1"/>
		</defs>
		<clipPath id="SVGID_00000051372746813783532050000010495682968505712292_" class="st2">
			<use xlink:href="#SVGID_00000000190298031557892990000000726165618917385911_"  style="overflow:visible;"/>
		</clipPath>
	</g>
	<g>
		<defs>
			<rect id="SVGID_00000057130999942299458920000006429878721828575926_" width="504" height="504"/>
		</defs>
		<clipPath id="SVGID_00000147931489729967346600000000437950574573689243_" class="st2">
			<use xlink:href="#SVGID_00000057130999942299458920000006429878721828575926_"  style="overflow:visible;"/>
		</clipPath>
	</g>
	<g id="Plot" class="st2">
	</g>
	<g id="Labels" class="st2">
		<defs>
			<rect id="SVGID_00000070805207644903083500000002628196729633675165_" width="504" height="504"/>
		</defs>
		<clipPath id="SVGID_00000158736813575008798790000009078080818490970043_">
			<use xlink:href="#SVGID_00000070805207644903083500000002628196729633675165_"  style="overflow:visible;"/>
		</clipPath>
	</g>
</g>
<g id="Layer_2">
	<g>
		<line class="st3" x1="67.2" y1="398.8" x2="67.2" y2="78.9"/>
		<line class="st3" x1="124.1" y1="398.8" x2="124.1" y2="78.9"/>
		<line class="st3" x1="181.1" y1="398.8" x2="181.1" y2="78.9"/>
		<line class="st3" x1="238.1" y1="398.8" x2="238.1" y2="78.9"/>
		<line class="st3" x1="295" y1="398.8" x2="295" y2="78.9"/>
		<line class="st3" x1="352" y1="398.8" x2="352" y2="78.9"/>
		<line class="st4" x1="58.2" y1="367.8" x2="378" y2="367.8"/>
		<line class="st4" x1="58.2" y1="316.3" x2="378" y2="316.3"/>
		<line class="st4" x1="58.2" y1="264.7" x2="378" y2="264.7"/>
		<line class="st4" x1="58.2" y1="213.1" x2="378" y2="213.1"/>
		<line class="st4" x1="58.2" y1="161.5" x2="378" y2="161.5"/>
		<line class="st4" x1="58.2" y1="109.9" x2="378" y2="109.9"/>
		<line class="st4" x1="95.7" y1="398.8" x2="95.7" y2="78.9"/>
		<line class="st4" x1="152.6" y1="398.8" x2="152.6" y2="78.9"/>
		<line class="st4" x1="209.6" y1="398.8" x2="209.6" y2="78.9"/>
		<line class="st4" x1="266.5" y1="398.8" x2="266.5" y2="78.9"/>
		<line class="st4" x1="323.5" y1="398.8" x2="323.5" y2="78.9"/>
		<polyline class="st5" points="72.9,367.8 181.1,367.8 252.5,367.8 255.2,367.8 260.9,367.8 262,367.8 272.2,367.8 		"/>
		<line class="st5" x1="209.6" y1="316.3" x2="289.3" y2="316.3"/>
		<polyline class="st5" points="283.6,264.7 283.6,264.7 283.6,264.7 293.6,264.7 302.7,264.7 312.1,264.7 319.3,264.7 320,264.7 		
			"/>
		<line class="st5" x1="306.5" y1="213.1" x2="340.6" y2="213.1"/>
		<line class="st5" x1="267.6" y1="161.5" x2="333.8" y2="161.5"/>
		<polyline class="st5" points="175.4,109.9 181.1,109.9 215.3,109.9 240.9,109.9 272.9,109.9 331.4,109.9 337.7,109.9 340.6,109.9 
			340.6,109.9 340.6,109.9 343.7,109.9 352,109.9 363.4,109.9 		"/>
		<circle class="st6" cx="333.8" cy="155.9" r="5.1"/>
		<circle class="st6" cx="293.8" cy="266" r="5.8"/>
		<circle class="st6" cx="175.2" cy="107.1" r="5.3"/>
		<circle class="st6" cx="262" cy="366.9" r="6.4"/>
		<circle class="st6" cx="261.1" cy="371.4" r="5.8"/>
		<circle class="st6" cx="272.4" cy="365.9" r="6"/>
		<circle class="st7" cx="306.3" cy="212.1" r="5.4"/>
		<circle class="st8" cx="340.4" cy="216.7" r="5.3"/>
		<circle class="st6" cx="340.4" cy="114.2" r="5.4"/>
		<circle class="st6" cx="283.5" cy="265.8" r="5.8"/>
		<circle class="st6" cx="255.1" cy="368.3" r="4.3"/>
		<circle class="st8" cx="340.6" cy="106" r="9.7"/>
		<circle class="st6" cx="267.6" cy="163.4" r="8.2"/>
		<circle class="st6" cx="273" cy="116" r="3.7"/>
		<circle class="st6" cx="289.5" cy="320.1" r="5.1"/>
		<circle class="st6" cx="331.3" cy="114.6" r="4.8"/>
		<circle class="st6" cx="241" cy="104.1" r="4.6"/>
		<circle class="st8" cx="363.5" cy="111.7" r="11"/>
		<circle class="st8" cx="352" cy="104.3" r="6.4"/>
		<circle class="st6" cx="337.7" cy="104" r="5.4"/>
		<circle class="st6" cx="283.6" cy="263.3" r="5.8"/>
		<circle class="st6" cx="72.7" cy="364" r="2.5"/>
		<circle class="st6" cx="215.1" cy="115.4" r="4.4"/>
		<circle class="st6" cx="209.6" cy="313.4" r="5.9"/>
		<circle class="st6" cx="343.8" cy="112.1" r="4.8"/>
		<circle class="st8" cx="340.5" cy="104" r="8.1"/>
		<circle class="st6" cx="312.3" cy="266.3" r="5.8"/>
		<circle class="st6" cx="302.7" cy="263.3" r="6.4"/>
		<circle class="st6" cx="319.9" cy="261.3" r="5.1"/>
		<circle class="st7" cx="181.2" cy="369.1" r="5.8"/>
		<circle class="st6" cx="252.3" cy="366.2" r="6.4"/>
		<circle class="st6" cx="181.2" cy="107.6" r="4.9"/>
		<circle class="st6" cx="319.2" cy="261.9" r="5.8"/>
		<circle class="st6" cx="283.5" cy="264.6" r="5.8"/>
	</g>
	<g>
		<rect x="29.3" y="363.4" class="st9" width="24" height="10.4"/>
		<text transform="matrix(1 0 0 1 29.2832 371)" class="st10 st11 st12">Japan</text>
		<rect x="25.9" y="311.9" class="st9" width="28.4" height="10.4"/>
		<text transform="matrix(1 0 0 1 25.8672 319.4102)" class="st13"><tspan x="0" y="0" class="st10 st11 st12 st14">Taiw</tspan><tspan x="23.5" y="0" class="st10 st11 st12">a</tspan></text>
		<text transform="matrix(1 0 0 1 30.2674 267.8201)" class="st10 st11 st12">China</text>
		<text transform="matrix(1 0 0 1 18.537 216.23)" class="st10 st11 st12">Malaysia</text>
		<text transform="matrix(1 0 0 1 41.0354 164.6399)" class="st10 st11 st12">UK</text>
		<text transform="matrix(1 0 0 1 35.1659 113.0601)" class="st10 st11 st12">USA</text>
		<rect x="85.9" y="402.5" class="st9" width="19.6" height="10.4"/>
		<text transform="matrix(1 0 0 1 85.8716 410.04)" class="st10 st11 st12">1970</text>
		<rect x="142.8" y="402.5" class="st9" width="19.6" height="10.4"/>
		<text transform="matrix(1 0 0 1 142.8315 410.04)" class="st10 st11 st12">1980</text>
		<rect x="199.8" y="402.5" class="st9" width="19.6" height="10.4"/>
		<text transform="matrix(1 0 0 1 199.8018 410.04)" class="st10 st11 st12">1990</text>
		<rect x="256.8" y="402.5" class="st9" width="19.6" height="10.4"/>
		<text transform="matrix(1 0 0 1 256.7617 410.04)" class="st10 st11 st12">2000</text>
		<rect x="313.7" y="402.5" class="st9" width="19.6" height="10.4"/>
		<text transform="matrix(1 0 0 1 313.7319 410.04)" class="st10 st11 st12">2010</text>
		<rect x="394.5" y="165.4" class="st9" width="81.9" height="13"/>
		<text transform="matrix(1 0 0 1 394.48 174.8506)" class="st11 st15">seating_capacity</text>
		<circle class="st16" cx="406.3" cy="190.2" r="6.6"/>
		<circle class="st16" cx="406.3" cy="210.6" r="9.2"/>
		<rect x="423.6" y="185.8" class="st9" width="14.7" height="10.4"/>
		<text transform="matrix(1 0 0 1 423.5801 193.3398)" class="st11 st12">500</text>
		<rect x="423.6" y="206.2" class="st9" width="19.6" height="10.4"/>
		<text transform="matrix(1 0 0 1 423.5801 213.79)" class="st11 st12">1000</text>
		<rect x="394.5" y="244" class="st9" width="29.4" height="13"/>
		<text transform="matrix(1 0 0 1 394.48 253.4707)" class="st11 st15">status</text>
		<circle class="st7" cx="403.1" cy="268.8" r="1.9"/>
		<circle class="st6" cx="403.1" cy="286.1" r="1.9"/>
		<circle class="st8" cx="403.1" cy="303.4" r="1.9"/>
		<text transform="matrix(1 0 0 1 417.24 271.96)" class="st11 st12">Defunct</text>
		<text transform="matrix(1 0 0 1 417.24 289.24)" class="st11 st12">Operating</text>
		<text transform="matrix(1 0 0 1 417.24 306.52)" class="st11 st12">Under Construction</text>
	</g>
</g>
</svg>
